HIERARCHY
ROOT Hips
{
	OFFSET 0.000000 0.000000 0.000000 
	CHANNELS 6 Xposition Yposition Zposition Zrotation Yrotation Xrotation
	JOINT LeftUpLeg
	{
		OFFSET 1.363060 -1.794630 0.839290 
		CHANNELS 3 Zrotation Yrotation Xrotation
		JOINT LeftLeg
		{
			OFFSET 2.448110 -6.726130 0.000000 
			CHANNELS 3 Zrotation Yrotation Xrotation
			JOINT LeftFoot
			{
				OFFSET 2.562200 -7.039590 0.000000 
				CHANNELS 3 Zrotation Yrotation Xrotation
				JOINT LeftToeBase
				{
					OFFSET 0.157640 -0.433110 2.322550 
					CHANNELS 3 Zrotation Yrotation Xrotation
					End Site
					{
						OFFSET 0.000000 0.000000 0.000000 
					}
				}
			}
		}
	}
	JOINT RightUpLeg
	{
		OFFSET -1.305520 -1.794630 0.839290 
		CHANNELS 3 Zrotation Yrotation Xrotation
		JOINT RightLeg
		{
			OFFSET -2.542530 -6.985550 0.000000 
			CHANNELS 3 Zrotation Yrotation Xrotation
			JOINT RightFoot
			{
				OFFSET -2.568260 -7.056230 0.000000 
				CHANNELS 3 Zrotation Yrotation Xrotation
				JOINT RightToeBase
				{
					OFFSET -0.164730 -0.452590 2.363150 
					CHANNELS 3 Zrotation Yrotation Xrotation
					End Site
					{
						OFFSET 0.000000 0.000000 0.000000 
					}
				}
			}
		}
	}
	JOINT Spine
	{
		OFFSET 0.028270 2.035590 -0.193380 
		CHANNELS 3 Zrotation Yrotation Xrotation
		JOINT Spine1
		{
			OFFSET 0.056720 2.048850 -0.042750 
			CHANNELS 3 Zrotation Yrotation Xrotation
			JOINT Neck1
			{
				OFFSET -0.054170 1.746240 0.172020 
				CHANNELS 3 Zrotation Yrotation Xrotation
				JOINT Head
				{
					OFFSET 0.104070 1.761360 -0.123970 
					CHANNELS 3 Zrotation Yrotation Xrotation
					End Site
					{
						OFFSET 0.000000 0.000000 0.000000 
					}
				}
			}
			JOINT LeftArm
			{
				OFFSET 3.362410 1.200890 -0.311210 
				CHANNELS 3 Zrotation Yrotation Xrotation
				JOINT LeftForeArm
				{
					OFFSET 4.983000 -0.000000 -0.000000 
					CHANNELS 3 Zrotation Yrotation Xrotation
					JOINT LeftHand
					{
						OFFSET 3.483560 -0.000000 -0.000000 
						CHANNELS 3 Zrotation Yrotation Xrotation
						JOINT LeftHandIndex1
						{
							OFFSET 0.715260 -0.000000 -0.000000 
							CHANNELS 3 Zrotation Yrotation Xrotation
							End Site
							{
								OFFSET 0.000000 0.000000 0.000000 
							}
						}
					}
				}
			}
			JOINT RightArm
			{
				OFFSET -3.136600 1.374050 -0.404650 
				CHANNELS 3 Zrotation Yrotation Xrotation
				JOINT RightForeArm
				{
					OFFSET -5.241900 -0.000000 -0.000000 
					CHANNELS 3 Zrotation Yrotation Xrotation
					JOINT RightHand
					{
						OFFSET -3.444170 -0.000000 -0.000000 
						CHANNELS 3 Zrotation Yrotation Xrotation
						JOINT RightHandIndex1
						{
							OFFSET -0.622530 -0.000000 -0.000000 
							CHANNELS 3 Zrotation Yrotation Xrotation
							End Site
							{
								OFFSET 0.000000 0.000000 0.000000 
							}
						}
					}
				}
			}
		}
	}
}
MOTION
Frames: 12
Frame Time: 0.041667
5.054024 14.471568 15.545324 -177.743315 12.498248 -155.755968 -64.739485 -11.351923 -2.109830 1.728616 10.948875 25.056381 5.954507 13.620104 -34.210042 5.014900 -13.400600 -40.887200 41.724982 47.825791 -46.097527 -2.586942 -22.315174 44.329494 -2.695081 -3.254022 -32.575422 -0.198600 2.869800 -7.916500 23.789677 6.597886 -19.379625 -5.984213 1.738553 1.767699 -12.915206 9.010390 67.742197 -1.216800 3.696700 18.338100 -94.189695 13.274404 26.018008 23.725299 -20.493542 -2.904669 2.729383 2.610161 -37.463944 -7.125000 0.000000 0.000000 86.297723 -10.432942 -9.409327 -36.227203 32.042298 -4.994969 -1.242033 -5.095867 -4.453299 7.125000 0.000000 0.000000 
5.072654 14.472680 15.522617 -177.587171 12.267875 -155.831839 -64.264059 -12.255660 -3.225303 2.030479 11.711139 27.255500 5.874686 13.616598 -34.062216 5.192500 -13.597400 -41.648000 42.297824 47.578398 -45.579972 -2.580561 -22.274852 44.283054 -2.666788 -3.089292 -32.698225 -0.192200 2.823200 -7.786900 24.779919 6.631833 -18.774958 -6.368159 1.706993 1.534095 -13.289258 9.293832 67.375394 -1.289200 3.741000 18.344100 -94.082985 13.332397 26.316643 23.856419 -20.724237 -2.962202 2.714107 2.563403 -37.209510 -7.125000 0.000000 0.000000 86.134432 -10.212102 -9.508484 -36.230042 32.118775 -5.012273 -1.307153 -5.120734 -4.548255 7.125000 0.000000 0.000000 
5.091191 14.474534 15.500650 -177.451704 12.038837 -155.917471 -63.743057 -13.204136 -4.402866 2.337120 12.490067 29.500035 5.775925 13.584595 -33.803187 5.378200 -13.797400 -42.431900 42.865507 47.319118 -45.043647 -2.577115 -22.231104 44.236168 -2.642960 -2.942935 -32.824766 -0.185300 2.772500 -7.646000 25.701448 6.637731 -18.167302 -6.728886 1.672722 1.294806 -13.650378 9.568181 67.016576 -1.360100 3.785700 18.348200 -93.963682 13.382291 26.568416 24.003297 -20.978617 -3.025016 2.706661 2.522835 -37.010587 -7.125000 0.000000 0.000000 85.961864 -9.974093 -9.591066 -36.209124 32.169978 -5.021703 -1.372516 -5.148675 -4.622824 7.125000 0.000000 0.000000 
5.109820 14.477129 15.479425 -177.334174 11.814958 -155.996258 -63.158765 -14.219896 -5.690069 2.655843 13.303287 31.825957 5.655648 13.510568 -33.446278 5.561500 -13.989500 -43.195200 43.418800 47.049907 -44.505215 -2.575266 -22.182205 44.184601 -2.621840 -2.808609 -32.951486 -0.177900 2.716600 -7.490600 26.553253 6.624333 -17.577880 -7.069578 1.637810 1.058797 -13.994140 9.829733 66.664687 -1.428600 3.830200 18.349100 -93.832469 13.424147 26.771716 24.164651 -21.253825 -3.092742 2.706850 2.489946 -36.866791 -7.125000 0.000000 0.000000 85.783492 -9.717298 -9.661100 -36.162824 32.193905 -5.022217 -1.437730 -5.178279 -4.681786 7.125000 0.000000 0.000000 
5.128265 14.480558 15.459405 -177.233322 11.602848 -156.042739 -62.489602 -15.325879 -7.142045 2.991799 14.166298 34.256977 5.511496 13.386563 -32.988314 5.738500 -14.170100 -43.923100 43.935684 46.775472 -43.996819 -2.574115 -22.128198 44.127594 -2.600880 -2.677433 -33.072548 -0.170000 2.655800 -7.322000 27.331804 6.603875 -17.035177 -7.390769 1.605712 0.833853 -14.318587 10.076684 66.319528 -1.494500 3.874000 18.347100 -93.691716 13.459352 26.923511 24.338809 -21.547154 -3.164780 2.714421 2.465179 -36.775512 -7.125000 0.000000 0.000000 85.602535 -9.441252 -9.723665 -36.089886 32.188798 -5.012784 -1.502165 -5.207918 -4.727336 7.125000 0.000000 0.000000 
5.146524 14.484544 15.440961 -177.151521 11.409176 -156.030150 -61.711183 -16.539197 -8.808104 3.348780 15.090276 36.802567 5.341591 13.201092 -32.428413 5.901900 -14.332600 -44.586700 44.388833 46.501010 -43.555837 -2.573086 -22.070545 44.066402 -2.576902 -2.539678 -33.183195 -0.161700 2.591100 -7.142300 28.030543 6.590289 -16.574212 -7.690244 1.580475 0.628274 -14.620439 10.306830 65.982699 -1.557000 3.916800 18.343900 -93.544159 13.490358 27.022141 24.524270 -21.855924 -3.240611 2.729029 2.448482 -36.733526 -7.125000 0.000000 0.000000 85.421177 -9.147659 -9.785192 -35.990274 32.154605 -4.993205 -1.565442 -5.236765 -4.761381 7.125000 0.000000 0.000000 
5.164597 14.488993 15.424463 -177.090977 11.236483 -155.943042 -60.798870 -17.865891 -10.721772 3.728477 16.080215 39.457400 5.146166 12.946191 -31.751880 6.048400 -14.475100 -45.175700 44.752670 46.231574 -43.213773 -2.572977 -22.012633 44.005950 -2.548345 -2.390172 -33.281388 -0.153400 2.523900 -6.955900 28.648950 6.593325 -16.214402 -7.966236 1.564670 0.446688 -14.898624 10.519551 65.656342 -1.615400 3.958100 18.341400 -93.391496 13.517657 27.067617 24.720255 -22.178185 -3.319900 2.750482 2.439491 -36.738100 -7.125000 0.000000 0.000000 85.240047 -8.837803 -9.849566 -35.866159 32.094197 -4.964559 -1.627632 -5.265347 -4.786594 7.125000 0.000000 0.000000 
5.182578 14.493998 15.409912 -177.053156 11.081018 -155.776487 -59.731439 -19.294617 -12.888748 4.133442 17.133075 42.205884 4.926545 12.608994 -30.949271 6.169200 -14.590300 -45.656900 45.014664 45.968895 -42.983546 -2.575178 -21.958141 43.952584 -2.515029 -2.229900 -33.369289 -0.145200 2.455800 -6.767100 29.190695 6.616033 -15.961209 -8.216385 1.558598 0.290086 -15.155970 10.717009 65.343195 -1.670200 3.998000 18.342000 -93.236149 13.543094 27.060407 24.925992 -22.512903 -3.402800 2.778698 2.437479 -36.785691 -7.125000 0.000000 0.000000 85.058536 -8.515445 -9.916955 -35.722273 32.012764 -4.929153 -1.688972 -5.295351 -4.808249 7.125000 0.000000 0.000000 
5.200466 14.499281 15.396936 -177.037596 10.933791 -155.542402 -58.495728 -20.798535 -15.288972 4.566579 18.238262 45.025958 4.686173 12.184418 -29.999027 6.258400 -14.674200 -46.010200 45.176927 45.711611 -42.858447 -2.581565 -21.910626 43.912793 -2.479014 -2.065253 -33.452738 -0.137300 2.388100 -6.579600 29.665475 6.653952 -15.798807 -8.440986 1.560207 0.155452 -15.397167 10.902314 65.045583 -1.722200 4.036400 18.347500 -93.078727 13.567221 27.003152 25.142191 -22.860600 -3.489350 2.813503 2.442182 -36.873343 -7.125000 0.000000 0.000000 84.875718 -8.184312 -9.986072 -35.564764 31.916866 -4.889707 -1.749766 -5.328823 -4.831837 7.125000 0.000000 0.000000 
5.218725 14.504935 15.384794 -177.041758 10.780597 -155.268851 -57.091615 -22.336051 -17.872762 5.033526 19.376840 47.895732 4.429036 11.667417 -28.890711 6.303200 -14.715800 -46.186700 45.261743 45.454447 -42.806145 -2.593458 -21.871596 43.889529 -2.443945 -1.908929 -33.539546 -0.129800 2.321900 -6.396100 30.089219 6.695656 -15.695117 -8.643265 1.565161 0.035735 -15.625564 11.077792 64.764469 -1.772300 4.072900 18.358200 -92.919219 13.589947 26.898993 25.369593 -23.222983 -3.580473 2.854536 2.452940 -36.998385 -7.125000 0.000000 0.000000 84.690520 -7.847249 -10.054186 -35.400158 31.814050 -4.849036 -1.809809 -5.366789 -4.863261 7.125000 0.000000 0.000000 
5.237170 14.510681 15.372930 -177.058209 10.611342 -154.982436 -55.528569 -23.864471 -20.588148 5.540121 20.526812 50.795261 4.160342 11.069028 -27.602225 6.295100 -14.708300 -46.154700 45.296487 45.192685 -42.793536 -2.610971 -21.841131 43.882480 -2.412320 -1.768806 -33.634314 -0.122700 2.257900 -6.218800 30.475932 6.731917 -15.622279 -8.827396 1.569295 -0.076954 -15.848387 11.246872 64.497790 -1.822400 4.107600 18.373400 -92.758783 13.613016 26.750813 25.609496 -23.601896 -3.676787 2.901421 2.468750 -37.156747 -7.125000 0.000000 0.000000 84.502432 -7.507447 -10.119985 -35.234251 31.710148 -4.808906 -1.868452 -5.409323 -4.905573 7.125000 0.000000 0.000000 
5.255892 14.516520 15.361067 -177.079356 10.419955 -154.708019 -53.824871 -25.343214 -23.382365 6.092538 21.664108 53.708539 3.884932 10.403931 -26.128004 6.220000 -14.638200 -45.858500 45.311939 44.922807 -42.787764 -2.632598 -21.817201 43.885809 -2.385421 -1.648156 -33.738511 -0.116000 2.195500 -6.046200 30.838628 6.757137 -15.557738 -9.000072 1.570268 -0.189597 -16.067662 11.409256 64.242493 -1.874200 4.140100 18.390900 -92.597285 13.637441 26.563433 25.863244 -23.999464 -3.779107 2.953245 2.488931 -37.345149 -7.125000 0.000000 0.000000 84.312675 -7.167762 -10.184092 -35.071876 31.609773 -4.770386 -1.924272 -5.454917 -4.960694 7.125000 0.000000 0.000000 
